<svg width="24" height="24" viewBox="0 0 24 24" fill="none" xmlns="http://www.w3.org/2000/svg">
<path d="M13.7798 12.0007L18.2276 7.55166C18.3478 7.43559 18.4436 7.29675 18.5095 7.14325C18.5755 6.98974 18.6102 6.82464 18.6116 6.65757C18.6131 6.49051 18.5813 6.32483 18.518 6.1702C18.4547 6.01557 18.3613 5.87509 18.2432 5.75695C18.125 5.63881 17.9846 5.54539 17.8299 5.48212C17.6753 5.41886 17.5096 5.38702 17.3426 5.38848C17.1755 5.38993 17.0104 5.42464 16.8569 5.49058C16.7034 5.55652 16.5645 5.65237 16.4485 5.77254L11.9994 10.2203L7.55166 5.77254C7.43559 5.65237 7.29675 5.55652 7.14325 5.49058C6.98974 5.42464 6.82464 5.38993 6.65757 5.38848C6.49051 5.38702 6.32483 5.41886 6.1702 5.48212C6.01557 5.54539 5.87509 5.63881 5.75695 5.75695C5.63881 5.87509 5.54539 6.01557 5.48212 6.1702C5.41886 6.32483 5.38702 6.49051 5.38848 6.65757C5.38993 6.82464 5.42464 6.98974 5.49058 7.14325C5.55652 7.29675 5.65237 7.43559 5.77254 7.55166L10.2203 11.9994L5.77254 16.4485C5.65237 16.5645 5.55652 16.7034 5.49058 16.8569C5.42464 17.0104 5.38993 17.1755 5.38848 17.3426C5.38702 17.5096 5.41886 17.6753 5.48212 17.8299C5.54539 17.9846 5.63881 18.125 5.75695 18.2432C5.87509 18.3613 6.01557 18.4547 6.1702 18.518C6.32483 18.5813 6.49051 18.6131 6.65757 18.6116C6.82464 18.6102 6.98974 18.5755 7.14325 18.5095C7.29675 18.4436 7.43559 18.3478 7.55166 18.2276L11.9994 13.7798L16.4485 18.2276C16.5645 18.3478 16.7034 18.4436 16.8569 18.5095C17.0104 18.5755 17.1755 18.6102 17.3426 18.6116C17.5096 18.6131 17.6753 18.5813 17.8299 18.518C17.9846 18.4547 18.125 18.3613 18.2432 18.2432C18.3613 18.125 18.4547 17.9846 18.518 17.8299C18.5813 17.6753 18.6131 17.5096 18.6116 17.3426C18.6102 17.1755 18.5755 17.0104 18.5095 16.8569C18.4436 16.7034 18.3478 16.5645 18.2276 16.4485L13.7798 11.9994V12.0007Z" fill="black"/>
</svg>
