<svg width="20" height="20" viewBox="0 0 20 20" fill="none" xmlns="http://www.w3.org/2000/svg">
<path d="M2.5 2.5L17.5 17.5" stroke="#98A2B3" stroke-width="2" stroke-linecap="round" stroke-linejoin="round"/>
<path d="M8.8204 8.82239C8.50766 9.1349 8.33188 9.55885 8.33173 10.001C8.33157 10.4431 8.50705 10.8672 8.81956 11.1799C9.13208 11.4926 9.55602 11.6684 9.99814 11.6686C10.4403 11.6687 10.8643 11.4932 11.1771 11.1807" stroke="#98A2B3" stroke-width="2" stroke-linecap="round" stroke-linejoin="round"/>
<path d="M7.80252 4.47084C8.51704 4.26644 9.25685 4.16404 10 4.16668C13.3334 4.16668 16.1109 6.11084 18.3334 10C17.685 11.1342 16.99 12.1033 16.2475 12.9067M14.4642 14.4575C13.105 15.3742 11.6184 15.8333 10 15.8333C6.66669 15.8333 3.88919 13.8892 1.66669 10C2.80752 8.00418 4.09419 6.52084 5.52669 5.54918" stroke="#98A2B3" stroke-width="2" stroke-linecap="round" stroke-linejoin="round"/>
</svg>
