<svg width="21" height="20" viewBox="0 0 21 20" fill="none" xmlns="http://www.w3.org/2000/svg">
<g id="file-no">
<path id="Icon" d="M10.5002 18L5.99999 18C4.89542 18 3.99999 17.1045 4 15.9999L4.00008 3.99999C4.00008 2.89542 4.89551 2 6.00008 2H13.5582C13.8398 2 14.1078 2.11861 14.3019 2.32273C14.5934 2.62948 15.0552 3.10178 15.5003 3.5C15.8491 3.8121 16.3971 4.3722 16.7253 4.71261C16.9028 4.8967 17.0003 5.14249 17.0003 5.39819L17 9.33337M13.0003 2V5C13.0003 5.55228 13.448 6 14.0003 6H17.0003" stroke="#98A2B3" stroke-width="1.5" stroke-linecap="round" stroke-linejoin="round"/>
<path id="Icon_2" d="M17 16.5L18 17.5M17.5 14.5C17.5 15.8807 16.3807 17 15 17C13.6193 17 12.5 15.8807 12.5 14.5C12.5 13.1193 13.6193 12 15 12C16.3807 12 17.5 13.1193 17.5 14.5Z" stroke="#98A2B3" stroke-width="1.5" stroke-linecap="round" stroke-linejoin="round"/>
</g>
</svg>
